<svg width="138" height="138" viewBox="0 0 138 138" fill="none" xmlns="http://www.w3.org/2000/svg">
<g opacity="0.89">
<path d="M94.7956 94.6931C95.7945 93.9168 96.7022 93.0091 98.5117 91.1996L121.1 68.606C121.648 68.0637 121.396 67.1219 120.671 66.865C117.134 65.6389 113.924 63.62 111.287 60.9626C108.63 58.3255 106.611 55.1154 105.385 51.5781C105.128 50.8531 104.186 50.6019 103.643 51.1499L81.0442 73.7378C79.2347 75.5473 78.327 76.455 77.5507 77.4539C76.6259 78.6375 75.842 79.9047 75.1989 81.2557C74.6566 82.3974 74.2513 83.6189 73.4407 86.0507L72.3904 89.1903L70.7235 94.1851L69.1652 98.8659C68.9708 99.4526 68.9434 100.082 69.086 100.683C69.2286 101.284 69.5355 101.834 69.9725 102.271C70.4095 102.708 70.9594 103.015 71.5607 103.158C72.1621 103.3 72.7912 103.273 73.3779 103.079L78.0587 101.52L83.0535 99.8534L86.1931 98.8031C88.6249 97.9925 89.8464 97.5929 90.9881 97.0449C92.3391 96.398 93.612 95.614 94.7956 94.6931ZM128.178 61.5334C130.493 59.2171 131.794 56.0757 131.794 52.8005C131.793 49.5252 130.491 46.3843 128.175 44.0687C125.859 41.7532 122.717 40.4526 119.442 40.4531C116.167 40.4537 113.026 41.7553 110.71 44.0716L109.991 44.8023C109.644 45.1418 109.385 45.5614 109.238 46.0242C109.091 46.487 109.059 46.9788 109.146 47.4566C109.26 48.0674 109.46 48.9694 109.831 50.0368C110.573 52.1774 111.978 54.9859 114.621 57.6289C117.264 60.2719 120.072 61.6761 122.213 62.4182C123.286 62.7892 124.182 62.989 124.793 63.1032C125.271 63.1853 125.761 63.1515 126.223 63.0044C126.685 62.8574 127.105 62.6015 127.447 62.2584L128.178 61.5334Z" fill="url(#paint0_linear_1795_1009)"/>
<path fill-rule="evenodd" clip-rule="evenodd" d="M24.3152 18.6069C17.625 25.2914 17.625 36.0573 17.625 57.5834V80.4167C17.625 101.943 17.625 112.709 24.3152 119.393C31.0053 126.078 41.7655 126.083 63.2917 126.083H74.7083C96.2345 126.083 107 126.083 113.685 119.393C120.267 112.817 120.375 102.291 120.375 81.4443L104.289 97.5303C102.748 99.0716 101.486 100.333 100.065 101.446C98.3976 102.752 96.5902 103.868 94.6761 104.774C92.9243 105.562 91.1245 106.239 89.2874 106.801L76.0897 111.202C73.9947 111.9 71.7464 112.002 69.597 111.495C67.4475 110.987 65.4818 109.892 63.9202 108.33C62.3586 106.768 61.2627 104.803 60.7555 102.653C60.2482 100.504 60.3496 98.2554 61.0483 96.1603L62.6124 91.4795L65.3238 83.3394L65.4437 82.9627C66.1344 80.8963 66.6995 79.2066 67.4759 77.574C68.3892 75.656 69.4985 73.8617 70.8038 72.191C71.917 70.764 73.1785 69.5081 74.7197 67.9669L97.5873 45.0936L103.935 38.7459L104.66 38.021C106.6 36.0753 108.905 34.5325 111.443 33.4813C113.982 32.4301 116.703 31.8913 119.45 31.8959C118.588 26.0163 116.916 21.8321 113.685 18.6069C107 11.9167 96.2345 11.9167 74.7083 11.9167H63.2917C41.7655 11.9167 30.9996 11.9167 24.3152 18.6069ZM41.8854 51.8751C41.8854 50.7396 42.3365 49.6507 43.1394 48.8478C43.9423 48.0449 45.0312 47.5938 46.1667 47.5938H83.2708C84.4063 47.5938 85.4952 48.0449 86.2981 48.8478C87.101 49.6507 87.5521 50.7396 87.5521 51.8751C87.5521 53.0105 87.101 54.0995 86.2981 54.9024C85.4952 55.7053 84.4063 56.1563 83.2708 56.1563H46.1667C45.0312 56.1563 43.9423 55.7053 43.1394 54.9024C42.3365 54.0995 41.8854 53.0105 41.8854 51.8751ZM41.8854 74.7084C41.8854 73.573 42.3365 72.484 43.1394 71.6811C43.9423 70.8782 45.0312 70.4272 46.1667 70.4272H60.4375C61.573 70.4272 62.6619 70.8782 63.4648 71.6811C64.2677 72.484 64.7188 73.573 64.7188 74.7084C64.7188 75.8439 64.2677 76.9328 63.4648 77.7357C62.6619 78.5386 61.573 78.9897 60.4375 78.9897H46.1667C45.0312 78.9897 43.9423 78.5386 43.1394 77.7357C42.3365 76.9328 41.8854 75.8439 41.8854 74.7084ZM41.8854 97.5417C41.8854 96.4063 42.3365 95.3173 43.1394 94.5144C43.9423 93.7116 45.0312 93.2605 46.1667 93.2605H54.7292C55.8646 93.2605 56.9536 93.7116 57.7565 94.5144C58.5594 95.3173 59.0104 96.4063 59.0104 97.5417C59.0104 98.6772 58.5594 99.7662 57.7565 100.569C56.9536 101.372 55.8646 101.823 54.7292 101.823H46.1667C45.0312 101.823 43.9423 101.372 43.1394 100.569C42.3365 99.7662 41.8854 98.6772 41.8854 97.5417Z" fill="url(#paint1_linear_1795_1009)" fill-opacity="0.941176"/>
</g>
<defs>
<linearGradient id="paint0_linear_1795_1009" x1="33.4995" y1="27.5" x2="130.011" y2="82.287" gradientUnits="userSpaceOnUse">
<stop offset="0.942308" stop-color="#677DC0"/>
</linearGradient>
<linearGradient id="paint1_linear_1795_1009" x1="17.625" y1="69.0001" x2="120.375" y2="69.0001" gradientUnits="userSpaceOnUse">
<stop stop-color="#19B0F0"/>
<stop offset="0.555049" stop-color="#89A4E1"/>
<stop offset="1" stop-color="#AE9CD9"/>
</linearGradient>
</defs>
</svg>
