<svg width="10" height="14" viewBox="0 0 10 14" fill="none" xmlns="http://www.w3.org/2000/svg">
<path d="M2.93562 1.98324H1.79276C1.16158 1.98324 0.649902 2.58019 0.649902 3.31657V11.3166C0.649902 12.053 1.16158 12.6499 1.79276 12.6499H7.50705C8.13825 12.6499 8.6499 12.053 8.6499 11.3166V3.31657C8.6499 2.58019 8.13825 1.98324 7.50705 1.98324H6.36419M2.93562 1.98324C2.93562 2.71962 3.44729 3.31657 4.07847 3.31657H5.22133C5.85253 3.31657 6.36419 2.71962 6.36419 1.98324M2.93562 1.98324C2.93562 1.24686 3.44729 0.649902 4.07847 0.649902H5.22133C5.85253 0.649902 6.36419 1.24686 6.36419 1.98324M2.93562 7.98324H6.36419M2.93562 10.6499H5.22133" stroke="#19B0F0" stroke-opacity="0.941176" stroke-width="1.3" stroke-linecap="round" stroke-linejoin="round"/>
</svg>
