<svg width="25" height="25" viewBox="0 0 25 25" fill="none" xmlns="http://www.w3.org/2000/svg">
<g clip-path="url(#clip0_2572_702)">
<path d="M13.1479 2.09589L14.8417 8.75543C14.884 8.92147 14.9695 9.07335 15.0895 9.19561C15.2096 9.31788 15.3598 9.40617 15.5251 9.4515L22.1514 11.2726C23.1109 11.5368 23.0979 12.9017 22.1335 13.1475L15.4729 14.8418C15.3069 14.884 15.155 14.9695 15.0327 15.0896C14.9105 15.2096 14.8222 15.3599 14.7769 15.5251L12.9558 22.1515C12.6916 23.111 11.3266 23.0979 11.0809 22.1335L9.38711 15.473C9.34483 15.3069 9.25932 15.1551 9.13929 15.0328C9.01926 14.9105 8.86898 14.8222 8.70375 14.7769L2.07789 12.9558C1.11837 12.6916 1.13145 11.3267 2.09585 11.0809L8.75638 9.38716C8.92242 9.34488 9.0743 9.25937 9.19657 9.13934C9.31884 9.0193 9.40713 8.86903 9.45246 8.70379L11.2735 2.07744C11.5377 1.11792 12.9027 1.131 13.1484 2.0954" stroke="#FD6815" stroke-width="2" stroke-linecap="round" stroke-linejoin="round"/>
</g>
<defs>
<clipPath id="clip0_2572_702">
<rect width="24" height="24" fill="white" transform="translate(0.229926) rotate(0.548915)"/>
</clipPath>
</defs>
</svg>
